<svg width="201" height="200" viewBox="0 0 201 200" fill="none" xmlns="http://www.w3.org/2000/svg">
<path d="M0 15C0 6.71572 6.71573 0 15 0H48.5597C75.3784 0 97.1193 21.7409 97.1193 48.5597V48.5597C97.1193 75.3784 75.3784 97.1193 48.5597 97.1193H15C6.71572 97.1193 0 90.4036 0 82.1193V15Z" fill="#EFECE6"/>
<path d="M103.119 12C103.119 5.37258 108.492 0 115.119 0H185.238C193.523 0 200.238 6.71573 200.238 15V44.4445C200.238 73.536 176.655 97.1193 147.564 97.1193H115.119C108.492 97.1193 103.119 91.7468 103.119 85.1193V12Z" fill="#EFECE6"/>
<path d="M0 154.794C0 125.703 23.5833 102.119 52.6749 102.119H82.1193C90.4036 102.119 97.1193 108.835 97.1193 117.119V184.239C97.1193 192.523 90.4036 199.239 82.1193 199.239H15C6.71572 199.239 0 192.523 0 184.239V154.794Z" fill="#EFECE6"/>
<path d="M103.119 150.679C103.119 123.86 124.86 102.119 151.679 102.119H185.238C193.523 102.119 200.238 108.835 200.238 117.119V184.239C200.238 192.523 193.523 199.239 185.238 199.239H151.679C124.86 199.239 103.119 177.498 103.119 150.679V150.679Z" fill="#EFECE6"/>
</svg>
